<?xml version="1.0" encoding="UTF-8" standalone="no"?>
<!-- Created with Inkscape (http://www.inkscape.org/) -->

<svg
   xmlns:dc="http://purl.org/dc/elements/1.1/"
   xmlns:cc="http://creativecommons.org/ns#"
   xmlns:rdf="http://www.w3.org/1999/02/22-rdf-syntax-ns#"
   xmlns:svg="http://www.w3.org/2000/svg"
   xmlns="http://www.w3.org/2000/svg"
   xmlns:sodipodi="http://sodipodi.sourceforge.net/DTD/sodipodi-0.dtd"
   xmlns:inkscape="http://www.inkscape.org/namespaces/inkscape"
   width="210mm"
   height="210mm"
   viewBox="0 0 210 210"
   version="1.1"
   id="svg8"
   inkscape:version="0.92.4 (5da689c313, 2019-01-14)"
   sodipodi:docname="CCM.svg">
  <defs
     id="defs2" />
  <sodipodi:namedview
     id="base"
     pagecolor="#ffffff"
     bordercolor="#666666"
     borderopacity="1.0"
     inkscape:pageopacity="0.0"
     inkscape:pageshadow="2"
     inkscape:zoom="0.49497475"
     inkscape:cx="527.07071"
     inkscape:cy="667.14842"
     inkscape:document-units="mm"
     inkscape:current-layer="layer1"
     showgrid="false"
     inkscape:window-width="1707"
     inkscape:window-height="937"
     inkscape:window-x="-8"
     inkscape:window-y="-8"
     inkscape:window-maximized="1" />
  <metadata
     id="metadata5">
    <rdf:RDF>
      <cc:Work
         rdf:about="">
        <dc:format>image/svg+xml</dc:format>
        <dc:type
           rdf:resource="http://purl.org/dc/dcmitype/StillImage" />
        <dc:title></dc:title>
      </cc:Work>
    </rdf:RDF>
  </metadata>
  <g
     inkscape:label="Layer 1"
     inkscape:groupmode="layer"
     id="layer1"
     transform="translate(0,-87)">
    <path
       style="fill:#882043;fill-opacity:1;stroke-width:0.43460694"
       d="m 136.57816,293.91553 c -0.73615,-0.44889 -1.5604,-1.37714 -1.83165,-2.06275 -0.85712,-2.1665 -3.13035,-11.19164 -3.13105,-12.43084 -8.6e-4,-1.70462 1.94911,-3.53609 4.99733,-4.69342 6.85131,-2.60131 16.84954,-8.365 22.38226,-12.90276 4.7454,-3.892 5.84248,-3.65543 12.07336,2.60332 6.42818,6.45698 6.4773,7.82918 0.45376,12.68012 -8.0267,6.46415 -19.5743,13.09147 -28.30434,16.24422 -4.46377,1.61205 -4.86255,1.6458 -6.63967,0.56211 z"
       id="path1216"
       inkscape:connector-curvature="0" />
    <path
       style="fill:#882043;fill-opacity:1;stroke-width:0.43460694"
       d="m 58.812561,288.62948 c -8.920173,-4.50864 -20.868437,-13.0329 -21.959296,-15.66648 -1.113267,-2.68766 -0.504263,-3.59831 8.194758,-12.25366 7.960403,-7.92042 8.218824,-8.13124 9.967363,-8.13124 1.485326,0 2.282251,0.37339 4.618313,2.16388 3.813532,2.92291 8.118358,5.66756 11.788057,7.51575 3.919071,1.97378 5.123785,3.25244 5.092798,5.40541 -0.02087,1.44902 -6.043501,18.73197 -7.431114,21.32472 -0.606268,1.13283 -2.640702,2.27026 -4.060649,2.27026 -0.555245,0 -3.349851,-1.18289 -6.21023,-2.62864 z"
       id="path1214"
       inkscape:connector-curvature="0" />
    <path
       style="fill:#cbcbbb;stroke-width:0.43460694"
       d="m 99.453906,288.21215 c -9.101905,-0.70941 -17.894733,-2.59772 -19.622972,-4.21416 -1.785566,-1.67006 -1.766228,-2.85084 0.134388,-8.20655 2.525766,-7.1173 3.360197,-7.72508 8.983086,-6.54312 8.895421,1.86987 16.048212,2.33436 23.760992,1.54296 3.10745,-0.31886 6.31579,-0.57097 7.12967,-0.56025 2.3664,0.0312 3.56092,1.77131 4.99217,7.27263 1.37596,5.28878 1.28518,7.14585 -0.41467,8.48293 -2.19028,1.72288 -15.82056,2.93808 -24.962664,2.22556 z"
       id="path1212"
       inkscape:connector-curvature="0" />
    <path
       style="fill:#bc4809;fill-opacity:1;stroke-width:0.43460694"
       d="m 129.50614,268.81671 c -1.27437,-1.16289 -1.65461,-2.33764 -5.78725,-17.87973 -4.33845,-16.31615 -4.40998,-16.66287 -3.73115,-18.0864 0.66705,-1.39881 1.35712,-1.87019 8.8711,-6.05986 0.93268,-0.52004 1.84989,-0.70402 2.63638,-0.52881 0.80584,0.17953 5.3562,4.3385 13.71127,12.53189 l 12.50517,12.26317 -0.0108,2.13115 c -0.009,1.94306 -0.17323,2.28239 -1.85729,3.84493 -4.78369,4.43848 -19.06952,12.36282 -23.10809,12.81802 -1.60441,0.18084 -2.05712,0.0358 -3.22993,-1.03436 z"
       id="path1206"
       inkscape:connector-curvature="0" />
    <path
       style="fill:#77787d;fill-opacity:1;stroke-width:0.43460694"
       d="m 100.97503,265.16723 c -7.588039,-0.55792 -13.354477,-1.88457 -20.866257,-4.80056 -7.450835,-2.89232 -17.352611,-9.12743 -18.732453,-11.79576 -1.34992,-2.61045 -0.83332,-3.37742 8.633031,-12.81708 4.840395,-4.82674 9.319907,-8.96893 9.954462,-9.20484 1.496492,-0.55636 2.540983,-0.22155 6.234576,1.99855 6.102295,3.66788 12.393648,5.34243 20.071741,5.34243 4.99727,0 6.60203,0.53646 7.49995,2.50717 0.26557,0.58284 1.85499,6.22423 3.53208,12.53642 2.95233,11.11196 3.02772,11.52207 2.37212,12.90364 -0.99756,2.10221 -2.60375,2.84205 -6.78775,3.12655 -2.00968,0.13669 -4.53406,0.31024 -5.60971,0.38575 -1.07566,0.0755 -3.91146,-0.006 -6.30179,-0.18227 z"
       id="path1172"
       inkscape:connector-curvature="0" />
    <path
       style="fill:#bc4809;fill-opacity:1;stroke-width:0.43460694"
       d="m 36.828665,256.88051 c -2.170336,-0.8057 -9.424576,-10.88616 -13.391191,-18.60835 -2.629402,-5.1189 -5.682954,-12.87764 -6.820308,-17.32964 -0.904562,-3.54078 -0.632743,-4.6237 1.565242,-6.2358 1.516461,-1.11224 47.245874,-9.26066 48.738296,-8.68458 1.486577,0.57385 2.754769,2.15089 3.639911,4.52635 0.426898,1.14569 1.595286,3.4116 2.596415,5.0354 2.238521,3.63077 2.509122,4.60038 1.762149,6.31422 -0.322178,0.73918 -8.183748,8.90488 -17.470151,18.14598 -17.666444,17.58026 -17.963433,17.82274 -20.620363,16.83642 z"
       id="path1170"
       inkscape:connector-curvature="0" />
    <path
       style="fill:#77787d;fill-opacity:1;stroke-width:0.43460694"
       d="m 167.64267,253.16256 c -4.37712,-4.28325 -5.14731,-5.78827 -4.11655,-8.04416 0.36434,-0.79735 2.03592,-3.30769 3.71465,-5.5785 5.38506,-7.28443 10.45258,-18.63781 12.41943,-27.82487 0.64915,-3.03212 1.04603,-3.94387 2.24247,-5.15175 l 1.45373,-1.46761 4.00843,0.28804 c 6.53671,0.46974 7.58917,0.69657 8.78624,1.89364 1.64397,1.64395 1.74505,2.8004 0.68595,7.84786 -2.74781,13.09549 -9.04241,26.57806 -17.54734,37.58505 -2.99512,3.87627 -3.47429,4.21391 -5.98,4.21391 -1.70437,0 -2.07303,-0.24469 -5.66701,-3.76161 z"
       id="path1168"
       inkscape:connector-curvature="0" />
    <path
       style="fill:#cbcbbb;stroke-width:0.43460694"
       d="m 154.63702,239.69763 c -1.76204,-1.16668 -16.51001,-15.92333 -17.18435,-17.19447 -1.02129,-1.92518 -0.73374,-3.24724 1.52172,-6.99642 1.17937,-1.9604 2.7344,-5.32454 3.45564,-7.47584 0.8934,-2.66483 1.69052,-4.23895 2.50104,-4.93897 1.12563,-0.97221 1.40168,-1.01197 5.12783,-0.73863 2.16599,0.1589 4.72046,0.37064 5.6766,0.47056 1.94756,0.20349 5.17435,0.46862 10.64786,0.87487 6.84205,0.50784 8.10601,1.45509 7.71375,5.78102 -0.51471,5.67625 -5.34071,17.4217 -10.14023,24.67913 -3.45348,5.22209 -4.53268,6.25023 -6.56062,6.25023 -0.92657,0 -2.16822,-0.32017 -2.75924,-0.71148 z"
       id="path1154"
       inkscape:connector-curvature="0" />
    <path
       style="fill:#882043;fill-opacity:1;stroke-width:0.43460694"
       d="m 3.0677448,208.27791 c -1.6270346,-1.62703 -1.8350074,-3.13708 -1.8350074,-13.32362 0,-7.52911 0.7586895,-16.04716 1.7654776,-19.82156 0.5243634,-1.96581 2.234628,-3.39151 4.068456,-3.39151 0.7538536,0 6.056321,1.25888 11.783258,2.79751 12.294434,3.30307 12.608646,3.49857 12.201285,7.59092 -0.133173,1.33787 -0.356326,6.53951 -0.495891,11.55922 -0.2685,9.65686 -0.492301,10.75979 -2.381568,11.73677 -1.268753,0.6561 -20.0612941,4.12638 -22.3454828,4.12638 -1.0644013,0 -1.8481617,-0.36174 -2.7605274,-1.27411 z"
       id="path1100"
       inkscape:connector-curvature="0" />
    <path
       style="fill:#882043;fill-opacity:1;stroke-width:0.43460694"
       d="m 103.36536,202.61462 v -3.89516 l -4.020118,-0.125 -4.020101,-0.12501 -0.127623,-3.1509 -0.127623,-3.1509 h 4.147801 4.147794 v -4.12876 -4.12876 h 3.04225 3.04225 v 4.12876 4.12876 h 4.14782 4.1478 l -0.12778,3.1509 -0.12777,3.1509 -4.02012,0.12501 -4.02012,0.125 v 3.89516 3.89515 h -3.04225 -3.04224 z"
       id="path1098"
       inkscape:connector-curvature="0" />
    <path
       style="fill:#cbcbbb;stroke-width:0.43460694"
       d="m 38.791954,203.72006 c -2.245635,-0.9778 -2.5163,-2.33074 -2.242099,-11.20724 0.265068,-8.58091 0.512938,-9.43415 3.110478,-10.70721 1.082762,-0.53066 2.259469,-0.29834 12.999119,2.56654 6.494727,1.73252 12.330129,3.4096 12.967561,3.72683 1.226261,0.61028 2.19734,2.79652 1.903784,4.28606 -0.09422,0.47808 -0.186269,1.90487 -0.204558,3.17066 -0.048,3.32252 -0.937281,4.04933 -6.117748,4.99999 -5.98518,1.09833 -20.998566,3.784 -21.041689,3.76404 -0.0202,-0.009 -0.638893,-0.27921 -1.374848,-0.59967 z"
       id="path1096"
       inkscape:connector-curvature="0" />
    <path
       style="fill:#882043;fill-opacity:1;stroke-width:0.43460694"
       d="m 176.16201,198.87922 c -14.82009,-1.29714 -27.38716,-2.4619 -27.92684,-2.58836 -0.53967,-0.12639 -1.58888,-0.77285 -2.3316,-1.43647 -1.11473,-0.99601 -1.45518,-1.77181 -1.95089,-4.4456 -1.2381,-6.67803 -1.24883,-7.51557 -0.11225,-8.76607 0.66828,-0.7353 10.29856,-5.43961 27.42622,-13.39749 25.31468,-11.76172 26.48055,-12.25477 28.45264,-12.03248 2.96405,0.33408 4.08398,1.7877 5.9727,7.75239 2.67894,8.46012 4.10593,16.54462 4.83597,27.39766 0.32516,4.83395 -0.0884,6.59093 -1.97742,8.40073 -0.96901,0.92835 -1.77188,1.25042 -3.35817,1.34709 -1.14657,0.0698 -14.21024,-0.93426 -29.03033,-2.2314 z"
       id="path1094"
       inkscape:connector-curvature="0" />
    <path
       style="fill:#77787d;fill-opacity:1;stroke-width:0.43460694"
       d="m 43.310168,175.93214 c -24.581993,-6.65164 -24.239081,-6.52066 -24.924834,-9.52061 -0.525054,-2.29694 4.730832,-13.87125 9.814664,-21.61351 2.160922,-3.2909 2.783047,-3.93761 4.191558,-4.35726 2.034013,-0.60599 3.352665,-0.16923 5.651398,1.87186 1.443816,1.28201 8.481845,7.18284 28.614104,23.9907 5.979871,4.99244 6.166803,5.1931 6.526146,7.00562 0.204574,1.03185 -0.0911,2.06293 -1.253463,4.37107 -0.836658,1.66138 -1.813598,3.26336 -2.17098,3.55996 -1.546235,1.28327 -3.65258,0.86056 -26.448593,-5.30783 z"
       id="path1056"
       inkscape:connector-curvature="0" />
    <path
       style="fill:#cbcbbb;stroke-width:0.43460694"
       d="m 139.61373,175.22944 c -0.50078,-0.20247 -1.5659,-1.21684 -2.36689,-2.25414 -0.80101,-1.03729 -2.29812,-2.80658 -3.32689,-3.93175 -2.53851,-2.77633 -2.55374,-4.40655 -0.0757,-8.09704 3.19595,-4.75954 4.58417,-5.73675 7.22321,-5.08464 1.41933,0.35071 5.26059,4.18088 8.08288,8.05954 3.55503,4.88566 2.63475,7.28578 -3.90016,10.1717 -3.7111,1.63886 -4.16652,1.73068 -5.6365,1.13633 z"
       id="path1054"
       inkscape:connector-curvature="0" />
    <path
       style="fill:#882043;fill-opacity:1;stroke-width:0.43460694"
       d="m 76.637039,166.97811 c -0.920925,-0.38348 -33.700398,-27.72004 -36.289677,-30.26391 -1.286168,-1.26361 -1.521125,-1.79286 -1.521125,-3.42634 0,-1.73144 0.225496,-2.16314 2.173034,-4.16027 5.248436,-5.38206 14.275655,-11.93252 22.06269,-16.00947 6.6046,-3.45787 8.580227,-3.00565 10.676037,2.4437 5.463434,14.20558 15.285338,41.97653 15.285338,43.21855 0,1.68017 -0.658765,2.44649 -4.128767,4.80285 -1.195167,0.81161 -2.933726,2.00131 -3.863461,2.64379 -1.730656,1.19595 -2.861546,1.38926 -4.394069,0.7511 z"
       id="path1052"
       inkscape:connector-curvature="0" />
    <path
       style="fill:#bc4809;fill-opacity:1;stroke-width:0.43460694"
       d="m 158.26992,165.96728 c -0.51833,-0.29032 -2.17647,-2.26419 -3.68474,-4.38637 -1.50828,-2.12217 -4.50228,-5.71814 -6.65332,-7.99101 -5.49287,-5.80397 -5.69611,-4.76938 3.52516,-17.9444 4.08989,-5.84349 7.80133,-10.95154 8.24766,-11.35123 1.26299,-1.13101 2.91262,-1.36151 4.6246,-0.64621 1.81418,0.75802 10.82665,9.57561 14.33432,14.02438 3.81182,4.83452 8.17381,11.73664 8.43517,13.34723 0.40767,2.51225 -0.70247,3.92193 -4.51784,5.73679 -13.59251,6.46553 -21.08675,9.76727 -22.13964,9.75407 -0.67591,-0.008 -1.65304,-0.25292 -2.17137,-0.54325 z"
       id="path1050"
       inkscape:connector-curvature="0" />
    <path
       style="fill:#882043;fill-opacity:1;stroke-width:0.43460694"
       d="m 121.77231,160.47346 c -0.8258,-0.50355 -1.57032,-1.44796 -1.87913,-2.38373 -0.46906,-1.42124 -0.147,-2.91083 3.883,-17.96116 4.07298,-15.21076 4.49322,-16.50245 5.74401,-17.6559 2.00987,-1.85344 4.2191,-1.48824 10.92366,1.80574 4.74737,2.33239 5.48147,2.84062 6.15578,4.2616 0.59411,1.25198 0.67118,1.92106 0.34408,2.98685 -0.6731,2.19312 -19.45927,28.67677 -20.76335,29.27096 -1.59525,0.72685 -2.83353,0.63573 -4.40805,-0.32436 z"
       id="path1044"
       inkscape:connector-curvature="0" />
    <path
       style="fill:#bc4809;fill-opacity:1;stroke-width:0.43460694"
       d="m 95.622533,156.67161 c -1.048782,-0.9823 -2.117563,-3.4466 -5.339168,-12.31061 -2.272786,-6.25342 -4.011387,-11.71005 -3.990014,-12.52273 0.07439,-2.82818 2.146267,-4.06375 8.462885,-5.04688 6.615604,-1.02964 11.132084,-1.22369 16.581434,-0.71241 5.81368,0.54546 7.40043,1.16475 8.41031,3.28246 0.6903,1.44761 0.64691,1.68954 -2.2378,12.4753 -3.28192,12.27097 -3.61646,13.23888 -5.00344,14.47594 -0.81497,0.72688 -1.63752,0.87811 -5.02323,0.92354 -2.22677,0.03 -5.51141,0.19141 -7.2992,0.35895 -3.15765,0.2959 -3.287979,0.26951 -4.561777,-0.92356 z"
       id="path1042"
       inkscape:connector-curvature="0" />
    <path
       style="fill:#cbcbbb;stroke-width:0.43460694"
       d="m 83.297674,121.96468 c -1.262702,-0.68568 -1.823466,-1.97372 -6.519853,-14.97563 -2.794214,-7.735757 -2.931989,-9.069768 -1.111995,-10.766781 1.483228,-1.383 10.1561,-3.414016 18.961649,-4.440456 7.551725,-0.880274 21.965075,-0.43158 29.157625,0.907674 3.4913,0.650092 5.22206,2.126133 5.22206,4.453511 0,1.600927 -4.86727,20.229322 -5.71751,21.882472 -1.00485,1.95378 -2.66549,2.283 -8.18991,1.62362 -8.75427,-1.04486 -17.616314,-0.59987 -25.777417,1.29439 -3.594461,0.8343 -4.521325,0.83756 -6.024649,0.0212 z"
       id="path1033"
       inkscape:connector-curvature="0" />
  </g>
</svg>
